HIERARCHY
ROOT hip
{
  OFFSET 245.462 76.5986 -72.8498
  CHANNELS 6 Xposition Yposition Zposition Zrotation Xrotation Yrotation
  JOINT abdomen
  {
    OFFSET 0 20.6881 -0.73152
    CHANNELS 3 Zrotation Xrotation Yrotation
    JOINT chest
    {
      OFFSET 0 11.7043 -0.48768
      CHANNELS 3 Zrotation Xrotation Yrotation
      JOINT neck
      {
        OFFSET 0 22.1894 -2.19456
        CHANNELS 3 Zrotation Xrotation Yrotation
        JOINT head
        {
          OFFSET -0.24384 7.07133 1.2192
          CHANNELS 3 Zrotation Xrotation Yrotation
          JOINT leftEye
          {
            OFFSET 4.14528 8.04674 8.04672
            CHANNELS 3 Zrotation Xrotation Yrotation
            End Site
            {
              OFFSET 1 0 0
            }
          }
          JOINT rightEye
          {
            OFFSET -3.6576 8.04674 8.04672
            CHANNELS 3 Zrotation Xrotation Yrotation
            End Site
            {
              OFFSET 1 0 0
            }
          }
        }
      }
      JOINT rCollar
      {
        OFFSET -2.68224 19.2634 -4.8768
        CHANNELS 3 Zrotation Xrotation Yrotation
        JOINT rShldr
        {
          OFFSET -8.77824 -1.95073 1.46304
          CHANNELS 3 Zrotation Xrotation Yrotation
          JOINT rForeArm
          {
            OFFSET -28.1742 -1.7115 0.48768
            CHANNELS 3 Zrotation Xrotation Yrotation
            JOINT rHand
            {
              OFFSET -22.5879 0.773209 7.07136
              CHANNELS 3 Zrotation Xrotation Yrotation
              JOINT rThumb1
              {
                OFFSET -1.2192 -0.487915 3.41376
                CHANNELS 3 Zrotation Xrotation Yrotation
                JOINT rThumb2
                {
                  OFFSET -3.37035 -0.52449 3.41376
                  CHANNELS 3 Zrotation Xrotation Yrotation
                  End Site
                  {
                    OFFSET -1.78271 -1.18214 1.43049
                  }
                }
              }
              JOINT rIndex1
              {
                OFFSET -7.75947 0.938293 5.60832
                CHANNELS 3 Zrotation Xrotation Yrotation
                JOINT rIndex2
                {
                  OFFSET -2.54057 -0.884171 1.56538
                  CHANNELS 3 Zrotation Xrotation Yrotation
                  End Site
                  {
                    OFFSET -1.62519 -0.234802 1.16502
                  }
                }
              }
              JOINT rMid1
              {
                OFFSET -8.24714 1.18213 3.41376
                CHANNELS 3 Zrotation Xrotation Yrotation
                JOINT rMid2
                {
                  OFFSET -3.10165 -0.590103 1.0647
                  CHANNELS 3 Zrotation Xrotation Yrotation
                  End Site
                  {
                    OFFSET -2.48547 -0.328903 0.83742
                  }
                }
              }
              JOINT rRing1
              {
                OFFSET -8.82822 0.546677 1.51678
                CHANNELS 3 Zrotation Xrotation Yrotation
                JOINT rRing2
                {
                  OFFSET -2.60934 -0.819778 -0.0198488
                  CHANNELS 3 Zrotation Xrotation Yrotation
                  End Site
                  {
                    OFFSET -2.33842 -0.294052 0.168128
                  }
                }
              }
              JOINT rPinky1
              {
                OFFSET -8.27202 -0.0477905 -0.4584
                CHANNELS 3 Zrotation Xrotation Yrotation
                JOINT rPinky2
                {
                  OFFSET -1.82734 -0.647385 -0.700984
                  CHANNELS 3 Zrotation Xrotation Yrotation
                  End Site
                  {
                    OFFSET -1.69225 -0.51767 -0.607171
                  }
                }
              }
            }
          }
        }
      }
      JOINT lCollar
      {
        OFFSET 2.68224 19.2634 -4.8768
        CHANNELS 3 Zrotation Xrotation Yrotation
        JOINT lShldr
        {
          OFFSET 8.77824 -1.95073 1.46304
          CHANNELS 3 Zrotation Xrotation Yrotation
          JOINT lForeArm
          {
            OFFSET 28.1742 -1.7115 0.48768
            CHANNELS 3 Zrotation Xrotation Yrotation
            JOINT lHand
            {
              OFFSET 22.5879 0.773209 7.07136
              CHANNELS 3 Zrotation Xrotation Yrotation
              JOINT lThumb1
              {
                OFFSET 1.2192 -0.487915 3.41376
                CHANNELS 3 Zrotation Xrotation Yrotation
                JOINT lThumb2
                {
                  OFFSET 3.37035 -0.52449 3.41376
                  CHANNELS 3 Zrotation Xrotation Yrotation
                  End Site
                  {
                    OFFSET 1.78271 -1.18214 1.43049
                  }
                }
              }
              JOINT lIndex1
              {
                OFFSET 7.75947 0.938293 5.60832
                CHANNELS 3 Zrotation Xrotation Yrotation
                JOINT lIndex2
                {
                  OFFSET 2.54057 -0.884171 1.56538
                  CHANNELS 3 Zrotation Xrotation Yrotation
                  End Site
                  {
                    OFFSET 1.62519 -0.234802 1.16502
                  }
                }
              }
              JOINT lMid1
              {
                OFFSET 8.24714 1.18213 3.41376
                CHANNELS 3 Zrotation Xrotation Yrotation
                JOINT lMid2
                {
                  OFFSET 3.10165 -0.590103 1.0647
                  CHANNELS 3 Zrotation Xrotation Yrotation
                  End Site
                  {
                    OFFSET 2.48547 -0.328903 0.83742
                  }
                }
              }
              JOINT lRing1
              {
                OFFSET 8.82822 0.546677 1.51678
                CHANNELS 3 Zrotation Xrotation Yrotation
                JOINT lRing2
                {
                  OFFSET 2.60934 -0.819778 -0.0198488
                  CHANNELS 3 Zrotation Xrotation Yrotation
                  End Site
                  {
                    OFFSET 2.33842 -0.294052 0.168128
                  }
                }
              }
              JOINT lPinky1
              {
                OFFSET 8.27202 -0.0477905 -0.4584
                CHANNELS 3 Zrotation Xrotation Yrotation
                JOINT lPinky2
                {
                  OFFSET 1.82734 -0.647385 -0.700984
                  CHANNELS 3 Zrotation Xrotation Yrotation
                  End Site
                  {
                    OFFSET 1.69225 -0.51767 -0.607171
                  }
                }
              }
            }
          }
        }
      }
    }
  }
  JOINT rButtock
  {
    OFFSET -8.77824 4.35084 1.2192
    CHANNELS 3 Zrotation Xrotation Yrotation
    JOINT rThigh
    {
      OFFSET 0 -1.70687 -2.19456
      CHANNELS 3 Zrotation Xrotation Yrotation
      JOINT rShin
      {
        OFFSET 0 -36.8199 0.73152
        CHANNELS 3 Zrotation Xrotation Yrotation
        JOINT rFoot
        {
          OFFSET 0.73152 -45.1104 -5.12064
          CHANNELS 3 Zrotation Xrotation Yrotation
          End Site
          {
            OFFSET -1.1221 -3.69964 12.103
          }
        }
      }
    }
  }
  JOINT lButtock
  {
    OFFSET 8.77824 4.35084 1.2192
    CHANNELS 3 Zrotation Xrotation Yrotation
    JOINT lThigh
    {
      OFFSET 0 -1.70687 -2.19456
      CHANNELS 3 Zrotation Xrotation Yrotation
      JOINT lShin
      {
        OFFSET 0 -36.8199 0.73152
        CHANNELS 3 Zrotation Xrotation Yrotation
        JOINT lFoot
        {
          OFFSET -0.73152 -45.1104 -5.12064
          CHANNELS 3 Zrotation Xrotation Yrotation
          End Site
          {
            OFFSET 1.1221 -3.69964 12.103
          }
        }
      }
    }
  }
}
MOTION
Frames:	8
Frame Time:	0.00833333
-143.081 77.998 87.3642 2.38046 0.0111361 -0.0455973 -3.1312 0.00208551 -0.084503 -0.863229 0.0181966 -0.149331 5.5004e-014 0 9.93924e-017 1.64749e-013 3.18055e-015 1.47535e-016 -0 0 0 -0 0 0 2.71336e-014 -1.70831e-017 1.49089e-016 5.76231e-013 -5.59082e-016 2.38542e-015 9.86613e-012 -2.98435e-012 -6.67917e-014 1.13254e-010 2.88745e-012 1.11319e-013 2.67074e-010 -2.09555e-013 8.90555e-014 4.61223e-010 -3.62583e-013 1.37559e-013 2.6708e-010 -2.07531e-013 7.95139e-014 7.73091 5.47488 0.417314 2.67076e-010 -2.0932e-013 8.90555e-014 2.90554 0.965183 0.102902 2.6708e-010 -2.09221e-013 8.50798e-014 10.2786 0.731801 0.0259123 2.67071e-010 -2.09121e-013 8.90555e-014 2.22167 -0.733487 -0.20892 2.7037e-014 -2.05773e-017 -1.49089e-016 5.72285e-013 -9.62863e-016 7.95139e-016 9.92244e-012 2.93227e-012 -1.11319e-013 1.13163e-010 -3.04705e-012 1.7175e-013 2.67008e-010 -2.46769e-013 8.5875e-014 4.6111e-010 -4.23014e-013 1.63003e-013 2.67004e-010 -2.46493e-013 1.01778e-013 -7.73091 5.47488 -0.417314 2.67008e-010 -2.47089e-013 9.22361e-014 -2.90554 0.965183 -0.102902 2.67002e-010 -2.46891e-013 9.70069e-014 -10.2786 0.731801 -0.0259123 2.6701e-010 -2.4371e-013 9.54166e-014 -2.22167 -0.733487 0.20892 -2.03217e-016 0 -3.88251e-019 -1.91876 -1.93503 0.0146241 -0.00850087 -2.07867 -0.0697632 -0.458693 4.00011 0.132463 2.03217e-016 0 3.88251e-019 -2.83819 -9.32626 0.322353 -0.00902512 11.3079 -0.235082 0.527316 -1.9951 -0.0183575 
-139.223 73.7082 82.0962 -7.54866 20.0433 -27.3669 -2.50385 6.40036 3.2908 0.414056 -0.204017 0.900492 -2.52708 1.43744 -1.60394 5.70808 -14.5654 0.419982 -0 0 0 -0 0 0 -4.72843e-014 -3.65798e-013 6.85924e-015 13.5805 4.02433 11.1908 -16.7249 -14.1546 15.1185 0.0983643 6.99755 0.957603 1.03147e-010 4.3077e-011 -6.08734e-010 1.65431e-010 8.39906e-011 -1.04785e-009 1.03151e-010 4.30786e-011 -6.08741e-010 7.73091 5.47488 0.417314 1.03148e-010 4.3078e-011 -6.08735e-010 2.90554 0.965183 0.102902 1.03153e-010 4.30783e-011 -6.08738e-010 10.2786 0.731801 0.0259123 1.03143e-010 4.30787e-011 -6.08733e-010 2.22167 -0.733487 -0.20892 -4.74024e-014 -3.65807e-013 6.57348e-015 -24.0952 19.9494 13.3203 7.58197 -4.54515 -10.4112 -0.0441336 -4.70783 0.653902 4.97428e-010 1.76382e-010 3.91046e-010 8.53196e-010 3.01701e-010 6.82719e-010 4.97425e-010 1.76382e-010 3.91059e-010 -7.73091 5.47488 -0.417314 4.97428e-010 1.76382e-010 3.91051e-010 -2.90554 0.965183 -0.102902 4.97424e-010 1.76382e-010 3.91054e-010 -10.2786 0.731801 -0.0259123 4.97432e-010 1.76384e-010 3.91051e-010 -2.22167 -0.733487 0.20892 -2.03217e-016 0 -3.88251e-019 -2.18092 -0.984505 -2.05641 0.113566 8.16962 0.214764 -0.36016 -0.678333 2.02362 2.03217e-016 0 3.88251e-019 -1.03318 -25.4132 4.18794 0.175183 35.2739 -0.600473 0.830629 0.730063 1.99521 
-135.365 74.2409 81.0267 0.632734 26.0098 -62.0583 -2.70282 13.0726 6.94475 1.79423 -0.462637 1.99362 -5.10051 2.91857 -3.25998 11.959 -29.9195 1.02536 -0 0 0 -0 0 0 -1.3169e-013 -7.76454e-013 1.64525e-014 26.2627 7.83713 23.1647 -26.1156 -26.031 34.1543 -0.0594327 14.3105 2.00802 -9.37737e-011 1.00614e-010 -1.3122e-009 -1.89435e-010 1.9441e-010 -2.25833e-009 -9.37713e-011 1.00615e-010 -1.3122e-009 7.73091 5.47488 0.417314 -9.37734e-011 1.00616e-010 -1.3122e-009 2.90554 0.965183 0.102902 -9.37671e-011 1.00616e-010 -1.3122e-009 10.2786 0.731801 0.0259123 -9.37772e-011 1.00617e-010 -1.3122e-009 2.22167 -0.733487 -0.20892 -1.31832e-013 -7.76469e-013 1.61792e-014 -61.5709 37.1482 33.0783 13.782 -8.80128 -21.5695 0.0277694 -9.60672 1.34958 7.72707e-010 3.74896e-010 8.16098e-010 1.32228e-009 6.41176e-010 1.42524e-009 7.72702e-010 3.74896e-010 8.16106e-010 -7.73091 5.47488 -0.417314 7.72705e-010 3.74896e-010 8.161e-010 -2.90554 0.965183 -0.102902 7.72703e-010 3.74896e-010 8.16102e-010 -10.2786 0.731801 -0.0259123 7.72712e-010 3.74897e-010 8.16096e-010 -2.22167 -0.733487 0.20892 -2.03217e-016 0 -3.88251e-019 -2.39108 -0.244992 -4.30452 0.127187 19.2738 0.544141 0.0975052 -5.86714 4.03731 2.03217e-016 0 3.88251e-019 4.05014 -42.1177 10.1569 1.08258 60.9119 -1.58136 0.94909 3.64144 4.17906 
-131.437 74.8735 79.9151 8.82121 12.2574 -84.7026 -3.60652 18.9263 10.5565 2.99304 -0.647631 3.00031 -7.33955 4.29879 -4.82392 17.9724 -43.6849 1.68642 -0 0 0 -0 0 0 -1.9612e-013 -1.09736e-012 2.02795e-014 36.2644 10.239 34.1041 -27.757 -29.9626 53.2308 -0.448604 20.9683 3.05381 -2.24709e-010 1.2965e-010 -1.82638e-009 -4.26153e-010 2.52697e-010 -3.14381e-009 -2.24707e-010 1.29651e-010 -1.82638e-009 7.73091 5.47488 0.417314 -2.24709e-010 1.29653e-010 -1.82638e-009 2.90554 0.965183 0.102902 -2.24701e-010 1.29653e-010 -1.82638e-009 10.2786 0.731801 0.0259123 -2.24712e-010 1.29654e-010 -1.82638e-009 2.22167 -0.733487 -0.20892 -1.96281e-013 -1.09738e-012 2.00186e-014 -106.559 44.1167 58.0368 17.9769 -11.8345 -31.8888 0.198447 -14.116 2.01599 9.5827e-010 5.29639e-010 1.17297e-009 1.63737e-009 9.05949e-010 2.04783e-009 9.58266e-010 5.29638e-010 1.17297e-009 -7.73091 5.47488 -0.417314 9.58268e-010 5.29639e-010 1.17297e-009 -2.90554 0.965183 -0.102902 9.58268e-010 5.29639e-010 1.17297e-009 -10.2786 0.731801 -0.0259123 9.58277e-010 5.29638e-010 1.17296e-009 -2.22167 -0.733487 0.20892 -2.03217e-016 0 -3.88251e-019 -2.49947 0.909288 -6.19835 0.0193121 28.6635 0.88574 0.772253 -9.98448 5.89576 2.03217e-016 0 3.88251e-019 13.7025 -56.2154 19.5238 8.01384 83.1359 -8.47826 0.861266 6.14748 6.05679 
-127.533 75.496 78.7478 10.79 -3.55555 -90.6107 -4.64892 22.9685 13.5975 3.71734 -0.649518 3.7907 -8.89241 5.43704 -6.14827 22.5376 -53.4953 1.96964 -0 0 0 -0 0 0 -2.1061e-013 -1.19389e-012 9.69075e-015 42.7474 10.9274 41.9156 -27.4907 -28.1421 64.2904 -0.9085 26.0096 3.93218 -1.90679e-010 8.74366e-011 -1.86734e-009 -3.67502e-010 1.80652e-010 -3.21676e-009 -1.90679e-010 8.7437e-011 -1.86734e-009 7.73091 5.47488 0.417314 -1.9068e-010 8.74394e-011 -1.86734e-009 2.90554 0.965183 0.102902 -1.90672e-010 8.74401e-011 -1.86734e-009 10.2786 0.731801 0.0259123 -1.90683e-010 8.74414e-011 -1.86734e-009 2.22167 -0.733487 -0.20892 -2.10778e-013 -1.19391e-012 9.44227e-015 -139.86 42.6021 75.3082 20.3412 -13.4469 -39.5145 0.398328 -17.6575 2.56412 9.19549e-010 5.74952e-010 1.35938e-009 1.5675e-009 9.83968e-010 2.37062e-009 9.19545e-010 5.74951e-010 1.35938e-009 -7.73091 5.47488 -0.417314 9.19547e-010 5.74952e-010 1.35938e-009 -2.90554 0.965183 -0.102902 9.19547e-010 5.74952e-010 1.35938e-009 -10.2786 0.731801 -0.0259123 9.19556e-010 5.74951e-010 1.35937e-009 -2.22167 -0.733487 0.20892 -2.03217e-016 0 -3.88251e-019 -2.42764 3.10241 -7.21307 -0.115006 33.7701 1.13918 1.24187 -11.4817 7.23518 2.03217e-016 0 3.88251e-019 26.0296 -65.0104 30.9624 170.351 82.7994 -170.732 0.698487 7.67823 7.12644 
-123.624 76.136 77.527 11.0025 -10.3758 -91.3304 -5.15929 24.6763 15.5828 3.75925 -0.378392 4.29686 -9.53922 6.24647 -7.17467 24.3044 -57.833 1.0092 -0 0 0 -0 0 0 -1.48158e-013 -9.46811e-013 -2.91332e-014 45.0419 10.7486 45.1424 -27.2703 -25.8685 64.8743 -1.19837 28.5933 4.42105 1.00806e-010 -1.00813e-010 -1.07101e-009 1.55068e-010 -1.56715e-010 -1.85097e-009 1.00807e-010 -1.00813e-010 -1.07101e-009 7.73091 5.47488 0.417314 1.00805e-010 -1.00811e-010 -1.07101e-009 2.90554 0.965183 0.102902 1.00813e-010 -1.0081e-010 -1.07101e-009 10.2786 0.731801 0.0259123 1.00802e-010 -1.00809e-010 -1.071e-009 2.22167 -0.733487 -0.20892 -1.48316e-013 -9.46817e-013 -2.93658e-014 -151.458 41.2373 80.6766 21.3669 -14.2146 -43.1727 0.53944 -19.8729 2.91819 4.89958e-010 4.48392e-010 1.34699e-009 8.24778e-010 7.69113e-010 2.34127e-009 4.89953e-010 4.48391e-010 1.34699e-009 -7.73091 5.47488 -0.417314 4.89955e-010 4.48392e-010 1.34699e-009 -2.90554 0.965183 -0.102902 4.89955e-010 4.48392e-010 1.34699e-009 -10.2786 0.731801 -0.0259123 4.89963e-010 4.48391e-010 1.34698e-009 -2.22167 -0.733487 0.20892 -2.03217e-016 0 -3.88251e-019 -2.33533 7.02455 -6.98564 -0.130381 32.4736 1.17884 1.11375 -9.10443 8.01065 2.03217e-016 0 3.88251e-019 31.4282 -68.2844 35.4997 172.424 80.6302 -172.751 0.617525 7.81086 7.02225 
-119.738 76.6795 76.3676 10.4614 -9.86786 -92.1938 -5.04887 24.7805 16.6893 3.31019 0.0865615 4.59933 -9.55304 6.82239 -7.98459 23.9357 -58.2357 -0.974939 -0 0 0 -0 0 0 -3.10824e-014 -4.55695e-013 -8.77417e-014 44.5126 10.2236 45.0944 -26.4586 -23.519 58.8461 -1.28207 29.438 4.58349 5.74927e-010 -3.91171e-010 3.15071e-010 1.00661e-009 -6.79652e-010 5.28155e-010 5.74927e-010 -3.91171e-010 3.15074e-010 7.73091 5.47488 0.417314 5.74925e-010 -3.91171e-010 3.15075e-010 2.90554 0.965183 0.102902 5.74932e-010 -3.91169e-010 3.15072e-010 10.2786 0.731801 0.0259123 5.74922e-010 -3.91167e-010 3.15078e-010 2.22167 -0.733487 -0.20892 -3.1217e-014 -4.55681e-013 -8.7956e-014 -148.445 42.3535 79.3717 21.693 -14.7356 -43.9543 0.609547 -21.1415 3.12179 -2.15167e-010 1.99956e-010 1.19069e-009 -3.92168e-010 3.46558e-010 2.05718e-009 -2.15172e-010 1.99955e-010 1.1907e-009 -7.73091 5.47488 -0.417314 -2.15168e-010 1.99955e-010 1.19069e-009 -2.90554 0.965183 -0.102902 -2.15169e-010 1.99955e-010 1.19069e-009 -10.2786 0.731801 -0.0259123 -2.15164e-010 1.99955e-010 1.19068e-009 -2.22167 -0.733487 0.20892 -2.03217e-016 0 -3.88251e-019 -2.42097 12.1914 -5.88791 -0.0555137 26.6233 1.06751 0.466923 -3.98706 8.40587 2.03217e-016 0 3.88251e-019 27.2611 -68.3259 30.629 160.146 86.6901 -160.453 0.60132 6.948 6.07819 
-115.791 77.2793 75.5686 9.78438 -6.54117 -92.428 -4.52171 24.2214 17.2794 2.67564 0.601037 4.7907 -9.32732 7.29925 -8.63859 23.0086 -56.9488 -3.00812 -0 0 0 -0 0 0 9.66023e-014 8.58499e-014 -1.41379e-013 43.4374 8.99831 43.7925 -24.4725 -19.6677 50.346 -1.28754 29.925 4.66177 1.07969e-009 -6.48313e-010 1.65738e-009 1.90909e-009 -1.14424e-009 2.83069e-009 1.07969e-009 -6.48313e-010 1.65738e-009 7.73091 5.47488 0.417314 1.07969e-009 -6.48314e-010 1.65739e-009 2.90554 0.965183 0.102902 1.0797e-009 -6.48313e-010 1.65738e-009 10.2786 0.731801 0.0259123 1.07969e-009 -6.4831e-010 1.65739e-009 2.22167 -0.733487 -0.20892 9.64948e-014 8.58815e-014 -1.4158e-013 -139.222 44.3165 74.7685 21.7481 -15.1731 -43.4865 0.643136 -21.9927 3.25646 -9.0751e-010 -6.73576e-011 9.13112e-010 -1.58458e-009 -1.08807e-010 1.56304e-009 -9.07515e-010 -6.73581e-011 9.13114e-010 -7.73091 5.47488 -0.417314 -9.07511e-010 -6.7359e-011 9.13111e-010 -2.90554 0.965183 -0.102902 -9.07513e-010 -6.73587e-011 9.13108e-010 -10.2786 0.731801 -0.0259123 -9.07509e-010 -6.73572e-011 9.13104e-010 -2.22167 -0.733487 0.20892 -2.03217e-016 0 -3.88251e-019 -2.58995 17.4507 -4.46832 0.0113836 19.6055 0.917715 -0.378069 1.83332 8.33653 2.03217e-016 0 3.88251e-019 20.185 -66.6223 22.8771 8.46164 83.4579 -8.74535 0.562644 5.77243 4.82441 
